<?xml version="1.0" standalone="no"?>
<!DOCTYPE svg PUBLIC "-//W3C//DTD SVG 20010904//EN"
 "http://www.w3.org/TR/2001/REC-SVG-20010904/DTD/svg10.dtd">
<svg version="1.0" xmlns="http://www.w3.org/2000/svg"
 width="967.000000pt" height="1280.000000pt" viewBox="0 0 967.000000 1280.000000"
 preserveAspectRatio="xMidYMid meet">
<metadata>
Created by potrace 1.15, written by Peter Selinger 2001-2017
</metadata>
<g transform="translate(0.000000,1280.000000) scale(0.100000,-0.100000)"
fill="#000000" stroke="none">
<path d="M7465 12794 c-146 -32 -227 -69 -380 -172 -156 -105 -262 -197 -408
-357 -162 -177 -206 -233 -334 -425 -136 -203 -161 -247 -313 -540 -127 -244
-185 -339 -223 -365 -12 -8 -73 -49 -135 -90 -63 -42 -216 -152 -341 -244
-273 -202 -329 -241 -346 -241 -7 0 -50 34 -96 76 -106 97 -157 134 -182 134
-26 0 -129 -84 -275 -225 l-119 -114 -104 90 c-153 134 -247 205 -445 338
-186 124 -272 200 -332 293 -18 29 -74 134 -123 233 -49 99 -107 203 -129 230
-22 28 -55 82 -74 121 -66 139 -242 377 -389 527 -191 195 -591 459 -788 520
-72 23 -207 20 -222 -4 -31 -50 48 -137 233 -253 415 -262 870 -702 1106
-1071 51 -80 189 -334 199 -365 11 -35 200 -236 315 -335 104 -89 242 -194
391 -298 121 -83 209 -163 209 -189 0 -11 -40 -58 -99 -116 -138 -135 -195
-231 -221 -372 -21 -113 22 -219 137 -341 90 -95 125 -108 326 -120 193 -11
227 -16 227 -32 -1 -21 -33 -53 -82 -81 -29 -16 -81 -66 -135 -129 -48 -56
-100 -112 -115 -125 -42 -36 -106 -174 -128 -277 -55 -255 -52 -613 5 -731 39
-81 30 -104 -42 -104 -52 0 -97 36 -150 119 -19 31 -59 85 -88 121 -28 36 -78
103 -109 150 -67 98 -212 391 -222 447 -3 21 -17 49 -29 63 -13 14 -82 149
-155 300 -72 151 -154 322 -182 379 -29 59 -156 262 -288 460 -236 355 -360
551 -360 566 0 11 -69 102 -159 210 -226 271 -295 328 -407 340 -35 4 -66 11
-69 15 -2 4 4 15 15 25 29 27 25 46 -25 113 -55 73 -272 284 -374 363 -42 33
-84 67 -94 77 -26 24 -60 94 -91 188 -15 45 -33 89 -40 100 -13 17 -15 16 -29
-19 -9 -20 -22 -37 -30 -37 -16 0 -123 110 -187 190 -47 60 -100 163 -100 195
0 29 -28 65 -50 65 -10 0 -29 -14 -41 -31 -26 -37 -39 -25 -39 36 0 42 -22 85
-44 85 -7 0 -33 -14 -59 -31 -58 -38 -78 -33 -114 29 -26 43 -28 54 -26 142 1
52 0 105 -2 117 -4 19 -49 53 -69 53 -18 0 -39 -62 -56 -166 -24 -151 -33
-160 -175 -193 -111 -25 -185 -50 -185 -61 0 -23 43 -34 174 -46 145 -13 228
-35 267 -70 27 -25 23 -51 -10 -69 -42 -21 -63 -53 -50 -77 8 -15 23 -18 102
-18 68 0 99 -4 113 -15 19 -15 19 -15 -4 -34 -12 -11 -22 -24 -22 -29 0 -11
57 -22 118 -22 55 0 102 -24 102 -51 0 -11 -11 -40 -25 -64 -29 -49 -30 -48
55 -59 60 -9 125 -48 244 -147 208 -174 596 -580 596 -624 0 -6 -11 -17 -25
-23 -18 -9 -25 -19 -25 -41 0 -42 46 -76 146 -106 141 -43 119 -21 617 -658
150 -191 287 -375 306 -408 24 -44 36 -82 42 -135 12 -94 40 -167 182 -484
146 -326 243 -519 299 -595 24 -33 95 -134 158 -225 202 -294 384 -514 457
-550 45 -22 83 -62 102 -106 23 -52 89 -100 223 -163 110 -51 148 -84 148
-130 0 -15 -19 -65 -41 -112 -52 -107 -79 -183 -79 -225 0 -74 -36 -102 -160
-125 -86 -17 -349 -16 -423 0 -56 12 -175 73 -332 171 -146 91 -501 248 -645
285 -96 25 -289 16 -388 -18 -70 -23 -122 -58 -122 -81 0 -6 -15 -26 -34 -46
-46 -47 -158 -218 -201 -305 -54 -111 -164 -368 -200 -468 -79 -219 -123 -335
-145 -377 -36 -70 -107 -271 -150 -420 -21 -74 -43 -148 -49 -164 -6 -16 -16
-84 -21 -152 -11 -133 -25 -183 -69 -254 -36 -55 -56 -121 -71 -223 -16 -106
-119 -420 -177 -537 -34 -69 -63 -111 -105 -152 -32 -32 -58 -62 -58 -67 0 -6
14 -23 30 -38 19 -18 29 -35 25 -44 -3 -9 -42 -37 -87 -64 -103 -61 -145 -98
-150 -133 -4 -26 -2 -27 32 -26 19 1 51 7 70 13 69 22 64 10 -38 -87 -133
-127 -137 -163 -12 -140 53 10 80 6 80 -11 0 -20 -61 -69 -148 -120 -84 -50
-112 -79 -112 -115 0 -15 21 -26 49 -26 28 0 71 -39 71 -64 0 -34 -54 -109
-118 -162 -89 -74 -172 -156 -188 -186 -13 -25 -12 -29 8 -48 18 -17 30 -20
58 -15 56 11 100 36 116 67 40 76 137 54 271 -62 31 -28 61 -49 67 -47 6 2 12
26 14 54 3 53 -7 84 -53 158 -37 60 -33 89 15 121 59 39 80 91 86 215 6 108
25 189 49 209 11 9 19 6 39 -15 31 -33 32 -30 41 88 8 107 17 134 47 139 28 4
46 58 47 144 1 74 15 119 52 161 28 33 52 115 64 228 10 85 40 205 70 278 42
100 101 274 130 382 32 122 59 185 79 185 16 0 59 -48 82 -92 29 -57 37 -18
45 239 8 275 17 331 74 467 20 49 54 160 76 245 21 86 54 192 73 236 18 44 55
134 81 200 103 262 199 487 228 536 18 29 49 66 70 83 l38 31 94 -32 c52 -18
278 -111 502 -206 630 -269 565 -253 1133 -286 164 -10 214 -20 251 -50 22
-17 22 -21 10 -45 -11 -19 -22 -26 -44 -26 -20 0 -38 -10 -58 -31 -16 -17 -29
-35 -29 -39 0 -13 -97 -46 -183 -64 -130 -27 -307 -47 -682 -76 -360 -29 -519
-73 -855 -238 -198 -97 -257 -145 -322 -262 -92 -168 -145 -348 -202 -695 -47
-284 -44 -265 -56 -375 -40 -391 -51 -570 -55 -900 -4 -295 -16 -394 -95 -770
-23 -107 -66 -314 -96 -460 -83 -405 -107 -482 -179 -581 -40 -53 -39 -65 9
-106 30 -26 27 -43 -19 -93 -102 -113 -107 -130 -35 -130 45 0 50 -2 50 -22 0
-36 -36 -87 -115 -163 -40 -38 -78 -81 -85 -94 -11 -21 -8 -27 20 -56 l31 -32
-43 -38 c-79 -70 -89 -119 -35 -156 42 -30 47 -39 40 -69 -16 -69 -61 -154
-142 -269 -99 -141 -162 -257 -163 -301 -1 -33 47 -98 74 -99 12 -1 19 10 23
36 3 21 8 50 10 65 7 42 53 105 90 122 18 9 58 16 89 16 47 0 61 -4 81 -25 14
-13 25 -36 25 -51 0 -24 25 -101 60 -189 l12 -30 14 30 c19 43 17 138 -6 241
-26 117 -26 248 -1 339 16 56 28 77 60 107 48 45 91 51 106 16 7 -17 18 -23
40 -23 28 0 30 2 33 45 3 40 -2 52 -43 107 -68 91 -84 165 -44 202 16 14 30
18 55 14 32 -5 35 -3 49 31 17 41 22 90 11 124 -6 18 -4 22 13 22 11 0 23 -4
26 -10 12 -20 55 -11 67 15 9 19 8 29 -6 47 -61 85 -106 181 -91 196 4 4 28 7
53 7 l47 0 -2 40 c-2 22 -6 87 -9 144 -7 114 3 212 42 406 61 305 62 312 114
685 23 162 45 267 61 287 13 14 44 6 131 -38 91 -45 95 -39 68 91 -12 57 -20
123 -18 149 2 34 -3 55 -18 81 -47 77 -64 248 -64 645 0 455 24 746 91 1090
42 213 50 227 159 284 112 58 288 104 795 206 382 77 523 111 770 183 342 101
401 115 485 116 61 1 80 -3 102 -19 32 -24 58 -66 58 -93 0 -40 -156 -149
-275 -193 -63 -23 -95 -44 -95 -64 0 -21 54 -63 95 -73 22 -6 89 -16 150 -22
60 -6 116 -15 124 -20 10 -5 -21 -25 -110 -68 -146 -71 -276 -151 -362 -223
-122 -100 -276 -291 -327 -402 -86 -191 -150 -637 -137 -962 9 -222 69 -541
122 -644 13 -27 36 -80 50 -118 35 -91 151 -313 217 -415 158 -241 294 -358
629 -539 74 -39 164 -91 200 -115 67 -45 139 -108 139 -124 0 -15 38 -22 59
-11 11 6 48 50 82 98 86 121 136 172 264 268 141 105 292 241 375 336 73 85
74 86 129 224 21 55 71 171 110 257 79 173 96 230 111 363 13 117 13 716 -1
870 -30 359 -159 628 -426 891 -174 171 -354 276 -505 296 -49 6 -88 14 -88
18 0 4 54 38 119 75 120 67 181 115 181 141 0 19 -31 30 -106 37 -70 7 -177
43 -279 94 -38 20 -72 37 -74 39 -3 3 33 43 80 90 69 69 93 87 134 99 54 16
52 16 209 -29 67 -19 110 -25 175 -24 61 0 107 -5 156 -20 165 -49 604 -133
955 -182 233 -34 363 -62 535 -117 156 -49 271 -106 295 -145 24 -41 75 -200
95 -303 17 -84 21 -106 54 -295 11 -63 29 -167 40 -230 25 -137 84 -499 103
-625 20 -136 18 -467 -4 -530 -9 -27 -32 -95 -51 -151 -37 -105 -49 -185 -30
-191 13 -5 95 88 120 136 38 74 75 131 83 126 4 -3 21 -42 38 -88 28 -78 37
-120 63 -287 26 -171 125 -523 175 -622 36 -71 45 -127 54 -328 9 -218 28
-288 67 -249 32 32 42 -27 19 -122 -8 -32 -11 -72 -7 -95 7 -38 7 -39 21 -17
9 15 25 23 42 23 42 0 58 -24 58 -88 0 -71 31 -186 58 -215 35 -40 45 -91 41
-231 l-4 -131 73 3 c83 4 99 -5 151 -83 22 -34 26 -50 25 -115 0 -90 -17 -127
-99 -215 -64 -69 -77 -101 -50 -122 47 -34 110 2 230 133 117 127 133 134 295
131 113 -2 129 0 167 21 23 12 47 31 52 41 19 35 5 40 -232 71 -120 15 -178
54 -227 151 -30 57 -26 101 11 144 40 45 34 69 -25 112 -64 47 -95 93 -112
163 -8 34 -35 101 -60 148 -43 81 -46 91 -41 147 3 54 0 68 -34 137 -20 43
-45 100 -54 129 -10 28 -30 65 -45 82 -30 34 -81 146 -82 181 -1 12 -7 28 -14
36 -16 21 -73 153 -89 209 -7 25 -17 71 -20 101 -4 30 -12 66 -17 80 -22 57
-157 519 -187 640 -32 131 -52 270 -61 433 -11 200 -20 288 -51 500 -45 323
-79 485 -138 677 -22 69 -60 201 -86 293 -51 184 -97 314 -141 392 -84 150
-353 326 -657 429 -325 110 -755 185 -1067 186 -168 1 -365 37 -438 82 -26 16
-32 26 -30 46 6 50 87 82 263 103 49 6 140 24 200 39 61 16 151 38 200 49 50
11 149 43 220 72 125 51 502 236 804 394 212 110 238 107 337 -46 109 -167
284 -528 389 -804 32 -82 90 -227 130 -320 40 -94 80 -193 88 -220 9 -28 27
-87 41 -133 32 -101 33 -153 6 -190 -16 -21 -21 -44 -22 -95 0 -37 2 -71 6
-75 4 -3 27 16 51 43 55 63 65 58 119 -51 94 -190 272 -719 297 -883 14 -97
23 -119 53 -130 29 -12 38 -34 26 -67 -15 -38 -12 -102 6 -140 13 -27 22 -34
45 -34 15 0 31 -5 35 -11 3 -6 11 -65 17 -131 7 -78 15 -122 23 -125 7 -2 31
9 55 26 23 18 46 28 51 23 4 -4 4 -41 -2 -82 -12 -95 -12 -181 0 -200 7 -12
12 -12 29 4 11 10 21 30 23 45 5 46 31 29 90 -59 75 -111 118 -217 118 -290 0
-46 -6 -65 -35 -110 -77 -123 -91 -170 -50 -170 26 0 101 78 168 174 34 50 76
98 93 108 21 12 68 22 140 28 150 13 167 17 193 41 31 29 22 72 -26 121 -44
45 -55 46 -94 13 -56 -46 -152 -58 -205 -26 -82 50 -118 142 -108 273 7 97 12
89 -90 172 -53 43 -51 51 21 62 36 5 41 9 33 23 -5 10 -27 23 -50 30 -26 8
-63 32 -98 67 l-56 54 20 21 c16 15 26 18 45 11 35 -12 58 -4 65 24 10 39 -26
69 -107 90 -51 13 -80 27 -105 52 -48 46 -44 59 19 69 42 7 53 12 55 30 4 24
-30 53 -116 99 -62 32 -63 34 -101 151 -38 115 -148 395 -198 503 -44 93 -61
142 -94 270 -12 47 -30 102 -40 122 -25 49 -24 108 2 153 14 23 22 55 23 90 1
48 -2 58 -28 82 -34 31 -67 102 -147 310 -32 84 -81 197 -110 250 -28 54 -65
122 -80 152 -16 30 -29 66 -29 82 0 42 -15 73 -63 132 -24 29 -67 100 -96 157
-71 138 -137 240 -156 240 -16 0 -29 25 -39 72 -13 58 -161 191 -283 252 -66
33 -110 33 -209 0 -196 -66 -605 -243 -728 -316 -113 -67 -428 -226 -504 -254
-81 -31 -121 -30 -185 3 -85 44 -116 52 -245 65 -173 17 -184 25 -287 221 -66
124 -65 127 33 147 71 15 185 74 217 112 43 51 67 108 72 172 10 110 59 182
228 331 196 172 450 572 550 864 25 73 57 155 71 183 14 27 56 140 93 251 79
232 109 310 179 458 51 110 177 334 266 474 107 168 338 484 411 560 59 62 79
91 89 126 23 85 215 323 581 724 101 110 202 224 225 253 23 28 46 52 51 52
12 0 39 54 39 78 0 34 119 122 164 122 9 0 34 7 56 16 l41 17 -21 22 c-12 13
-33 26 -46 29 -13 4 -24 10 -24 14 0 12 104 71 170 95 69 26 69 27 -22 83 -27
16 -48 32 -48 35 0 14 130 126 184 158 31 19 80 39 109 46 44 10 52 15 50 34
-2 11 3 21 10 22 14 0 -104 40 -176 59 -63 17 -76 38 -93 152 -7 50 -18 96
-23 101 -13 13 -58 0 -82 -24 -19 -19 -20 -27 -12 -97 19 -175 -4 -264 -82
-326 -33 -25 -42 -28 -85 -22 -59 8 -62 4 -71 -87 -8 -83 -25 -108 -63 -88
-14 8 -31 11 -40 8 -14 -6 -36 -65 -36 -100 0 -33 -52 -120 -103 -175 -56 -59
-93 -82 -130 -82 -33 0 -43 -15 -51 -79 -8 -58 -47 -144 -107 -232 -37 -55
-287 -384 -338 -446 -14 -17 -42 -53 -61 -80 -57 -78 -190 -212 -267 -270 -96
-71 -109 -85 -147 -168 -18 -38 -91 -164 -163 -280 -157 -254 -190 -311 -212
-373 -12 -33 -23 -47 -35 -46 -20 2 -57 -69 -185 -354 -49 -108 -119 -262
-156 -342 -81 -175 -90 -199 -121 -320 -27 -106 -31 -164 -11 -158 21 7 93
122 111 178 28 84 103 240 117 240 21 0 2 -81 -37 -155 -20 -38 -50 -113 -66
-165 -36 -114 -133 -306 -251 -493 -141 -225 -239 -347 -278 -347 -33 0 -14
38 52 105 32 33 59 65 59 70 0 5 10 28 21 52 12 24 18 47 14 51 -10 10 -95
-88 -165 -191 -110 -160 -230 -316 -255 -333 -24 -16 -27 -15 -44 0 -28 25
-30 45 -41 351 -11 322 -19 379 -70 530 -68 202 -131 300 -265 414 -88 74
-120 119 -110 152 10 29 34 38 152 53 160 21 272 71 380 169 73 67 92 111 93
207 0 196 -104 406 -272 548 -51 42 -88 81 -88 91 0 48 262 248 602 461 106
66 214 160 247 214 11 17 22 47 26 66 12 58 97 218 259 489 84 141 161 272
171 291 86 170 516 570 850 789 142 93 237 180 249 225 11 44 -20 81 -70 83
-21 0 -48 -1 -59 -3z m416 -1409 c-52 -69 -148 -177 -167 -188 -9 -5 -14 -3
-14 8 0 17 210 249 218 241 3 -3 -14 -30 -37 -61z m-206 -225 c-3 -5 -16 -15
-28 -21 -22 -12 -22 -12 -3 10 19 21 43 30 31 11z m-502 -627 c-20 -41 -38
-52 -46 -28 -4 9 6 29 25 51 37 42 48 30 21 -23z m-2059 -689 c24 -71 24 -74
6 -84 -27 -14 -56 -12 -70 4 -11 14 -8 87 6 154 8 38 29 10 58 -74z m-714 -10
c47 -43 88 -51 185 -36 94 15 105 8 105 -68 0 -33 -2 -60 -5 -60 -3 0 -16 12
-29 27 -33 38 -51 26 -90 -59 -42 -93 -62 -110 -131 -116 -90 -7 -97 2 -37 54
48 42 64 75 44 88 -15 9 -72 -27 -118 -76 -37 -39 -45 -54 -40 -74 5 -19 3
-24 -14 -24 -12 0 -25 10 -31 24 -12 25 5 70 54 146 18 29 22 48 20 105 -3
112 19 130 87 69z m460 -28 c6 -8 10 -25 8 -38 -2 -18 -10 -24 -34 -26 -26 -2
-36 3 -52 26 -16 22 -18 32 -10 40 17 17 73 15 88 -2z m393 -131 c26 -24 47
-48 47 -54 0 -18 -75 -13 -92 7 -21 24 -29 52 -23 73 9 26 13 24 68 -26z
m-442 -756 c36 -9 55 -31 43 -50 -8 -14 -71 -11 -110 6 -40 16 -86 50 -78 57
6 7 101 -2 145 -13z m-1574 -152 c29 -42 45 -87 38 -104 -8 -21 -25 -6 -44 41
-39 90 -35 125 6 63z m1547 12 c30 -24 66 -88 66 -118 0 -16 -9 -22 -40 -27
-53 -9 -64 -23 -51 -68 5 -20 6 -37 3 -37 -4 -1 -15 -2 -26 -3 -20 -1 -29 -13
-47 -61 l-12 -30 -9 33 c-5 20 -21 40 -41 52 -60 37 -147 17 -147 -34 0 -31
-24 -61 -43 -53 -20 8 -45 -22 -53 -64 -8 -41 -22 -69 -33 -69 -19 0 -61 104
-61 149 0 141 156 286 360 336 78 19 104 18 134 -6z m301 -14 c0 -15 -11 -24
-44 -34 -37 -12 -47 -12 -75 1 l-31 15 35 22 c46 28 115 26 115 -4z m-265
-452 c0 -43 -13 -72 -25 -54 -9 15 4 91 16 91 5 0 9 -17 9 -37z m96 -368 c39
-26 27 -85 -18 -85 -10 0 -23 11 -28 24 -10 28 -42 51 -83 62 -22 5 -26 9 -15
16 19 13 115 2 144 -17z m-226 -40 c0 -36 -6 -52 -25 -71 -22 -22 -28 -24 -41
-13 -34 28 3 129 48 129 15 0 18 -8 18 -45z m378 -362 c4 -25 -31 -53 -65 -53
-30 0 -30 26 -1 57 27 29 62 27 66 -4z m2032 -432 c0 -13 -42 -21 -70 -14 -22
6 -23 7 -4 14 27 11 74 11 74 0z m-2012 -72 c42 -14 52 -50 52 -177 0 -89 5
-119 31 -201 24 -78 28 -102 20 -124 -6 -15 -15 -27 -20 -27 -14 0 -36 82 -55
200 -32 195 -44 230 -98 282 l-48 47 28 4 c50 7 59 7 90 -4z m-520 -134 l37
-26 -50 7 c-63 8 -70 0 -79 -85 -8 -80 -28 -116 -56 -101 -70 38 -2 230 82
230 16 0 46 -11 66 -25z m-1950 -1 c42 -12 22 -24 -38 -24 -33 0 -60 4 -60 9
0 18 54 26 98 15z m4036 -5 c-20 -33 -267 -169 -308 -169 -19 0 -19 0 0 21 59
65 341 201 308 148z m-3414 -309 c0 -31 -18 -33 -45 -4 -25 27 -31 45 -19 57
11 11 64 -33 64 -53z m4724 -202 c19 -31 30 -88 17 -88 -11 0 -44 45 -54 73
-14 39 14 50 37 15z m-2454 -263 c16 -19 6 -45 -18 -45 -25 0 -46 25 -38 45 7
19 40 19 56 0z m720 -70 c284 -28 360 -53 360 -118 0 -23 -8 -22 -175 27 -66
20 -187 51 -270 70 -172 40 -152 45 85 21z m576 -99 c86 -32 101 -45 49 -48
-74 -3 -140 4 -166 18 -27 14 -42 37 -32 48 14 13 86 5 149 -18z m-3291 -111
c-5 -2 -77 -13 -160 -25 -215 -30 -561 -88 -625 -105 -30 -8 -56 -13 -58 -11
-1 2 26 17 61 34 68 32 200 64 332 82 123 17 483 37 450 25z m4733 -217 c26
-26 11 -148 -18 -148 -22 0 -39 104 -24 144 7 19 25 21 42 4z m-6648 -82 c0
-78 -70 -246 -102 -246 -24 0 23 179 64 248 25 41 38 41 38 -2z m3141 -598
c34 -18 61 -37 61 -42 -3 -26 -189 -47 -222 -26 -20 13 -2 42 31 50 17 4 24
13 23 28 -1 32 32 28 107 -10z m-286 -143 c14 -13 25 -33 25 -43 0 -29 25 -45
59 -37 40 9 57 -19 71 -110 19 -136 11 -225 -21 -225 -10 0 -21 -6 -26 -12 -4
-7 -10 -98 -13 -203 -5 -185 -5 -188 -18 -130 -22 102 -53 139 -73 88 -6 -15
-15 -36 -21 -46 -5 -12 -6 -23 0 -30 15 -19 23 -80 13 -96 -12 -18 -133 -34
-166 -21 -37 14 -54 49 -76 156 -21 106 -42 141 -88 146 -56 6 -50 108 7 116
26 4 48 42 39 66 -5 11 -14 14 -37 10 -25 -6 -36 -1 -69 32 -42 43 -61 93 -61
165 0 68 31 89 70 47 13 -15 20 -35 20 -63 0 -51 18 -77 54 -77 34 0 62 25 70
64 8 42 22 56 63 64 39 7 58 32 68 87 7 37 44 77 72 77 8 0 25 -11 38 -25z
m3365 -145 c0 -36 -10 -61 -21 -54 -10 6 -12 77 -3 87 12 12 24 -4 24 -33z
m-3087 -40 c-1 -69 -19 -88 -23 -25 -5 69 0 99 12 87 6 -6 11 -35 11 -62z
m-2737 -155 c8 -20 -5 -85 -16 -85 -6 0 -10 23 -10 50 0 48 14 67 26 35z
m1989 -86 c11 -17 -4 -56 -23 -61 -10 -3 -29 -1 -42 4 l-25 9 33 30 c35 31 47
35 57 18z m670 -192 c18 -37 26 -43 70 -54 28 -7 63 -20 79 -29 29 -17 30 -17
53 12 13 16 26 39 29 52 13 49 25 18 22 -60 l-3 -82 -36 -1 c-20 -1 -51 -12
-68 -24 -38 -28 -61 -21 -61 17 0 37 -17 52 -57 52 -21 0 -36 6 -42 18 -13 25
-26 142 -15 142 5 -1 18 -20 29 -43z m3303 -169 c29 -139 47 -321 34 -344 -9
-16 -10 -16 -21 4 -14 27 -60 304 -67 407 -5 80 -5 80 14 58 12 -13 27 -62 40
-125z m-5994 -153 c10 -254 21 -361 52 -477 15 -53 24 -104 20 -113 -5 -15 -9
-15 -36 2 -61 36 -100 222 -101 485 0 146 7 210 32 302 11 38 12 39 19 16 4
-14 10 -111 14 -215z m2154 179 c2 -16 -4 -38 -11 -48 -14 -19 -15 -18 -22 12
-8 37 2 75 18 69 7 -2 13 -17 15 -33z m-211 -185 c22 -8 24 -12 13 -19 -20
-13 -61 -12 -80 0 -13 9 -13 11 0 20 19 13 32 12 67 -1z m121 -80 c2 -19 -4
-43 -12 -54 -14 -19 -15 -16 -16 38 0 43 3 58 13 55 6 -3 13 -20 15 -39z m265
-9 c89 -11 197 -24 240 -29 93 -10 117 -27 117 -82 0 -45 -15 -44 -45 1 -26
40 -35 38 -35 -7 0 -21 -3 -49 -7 -62 -6 -24 -9 -22 -59 35 -29 32 -55 56 -59
52 -4 -3 1 -63 10 -132 10 -84 13 -132 6 -143 -8 -15 -11 -14 -22 12 -7 17
-14 32 -15 33 -5 9 -73 19 -76 12 -2 -4 -26 -11 -54 -15 -70 -9 -84 6 -84 90
0 55 -3 65 -20 70 -11 3 -20 10 -20 14 0 4 -18 38 -41 75 -40 67 -44 96 -14
96 9 0 89 -9 178 -20z m625 -262 c14 -14 16 -78 2 -78 -22 0 -48 38 -43 64 6
28 22 33 41 14z m-359 -154 c1 -23 -2 -56 -6 -75 -5 -28 -7 -30 -14 -14 -10
25 -11 122 -2 155 l7 25 7 -25 c4 -14 7 -44 8 -66z m-562 54 c41 -39 19 -83
-26 -52 -20 14 -28 53 -14 67 10 11 15 9 40 -15z m744 -107 l24 -20 -31 -33
c-17 -18 -37 -48 -44 -65 -7 -18 -16 -30 -21 -27 -10 6 -12 124 -3 148 8 22
47 20 75 -3z m230 -221 c22 -12 37 -25 34 -30 -12 -20 -115 16 -115 40 0 16
38 11 81 -10z m-217 -238 c2 -4 -32 -16 -77 -25 -71 -15 -86 -21 -113 -52 -34
-38 -44 -33 -44 21 0 35 -29 31 -41 -6 -14 -40 -36 -38 -56 6 -28 58 -10 64
173 64 84 0 155 -4 158 -8z m211 -685 c19 -29 31 -87 18 -87 -15 0 -40 31 -52
63 -18 48 7 65 34 24z"/>
<path d="M4350 3591 c0 -53 15 -69 26 -27 8 33 2 69 -13 74 -9 2 -13 -11 -13
-47z"/>
<path d="M7579 10735 c-14 -8 -34 -26 -43 -40 -15 -23 -15 -26 -1 -31 24 -10
93 2 120 20 16 10 25 26 25 41 0 22 -4 25 -37 25 -21 -1 -50 -7 -64 -15z"/>
<path d="M6039 8525 c-25 -39 -58 -92 -74 -120 -16 -27 -39 -65 -52 -83 -25
-34 -28 -82 -6 -89 7 -3 27 11 46 29 27 25 48 66 87 166 62 162 62 193 -1 97z"/>
</g>
</svg>
