<svg width="48" height="48" fill="none" xmlns="http://www.w3.org/2000/svg"><path d="M32.308 6H15.692C10.348 6 6 10.348 6 15.692v16.616C6 37.652 10.348 42 15.692 42h16.616C37.652 42 42 37.652 42 32.308V15.692C42 10.348 37.652 6 32.308 6zm6.923 26.308a6.931 6.931 0 01-6.923 6.923H15.692a6.93 6.93 0 01-6.923-6.923V15.692a6.93 6.93 0 016.923-6.923h16.616a6.93 6.93 0 016.923 6.923v16.616zM24 15.692c-4.582 0-8.308 3.726-8.308 8.308s3.726 8.308 8.308 8.308 8.308-3.726 8.308-8.308-3.726-8.308-8.308-8.308zm0 13.846A5.544 5.544 0 0118.462 24 5.544 5.544 0 0124 18.462 5.544 5.544 0 0129.538 24 5.544 5.544 0 0124 29.538zM35.077 15a2.078 2.078 0 11-4.155-.001 2.078 2.078 0 014.155.001z" fill="#000"/></svg>