<svg width="48" height="48" fill="none" xmlns="http://www.w3.org/2000/svg"><path d="M42 12.471a14.932 14.932 0 01-4.242 1.167 7.412 7.412 0 003.25-4.089 14.675 14.675 0 01-4.691 1.793A7.377 7.377 0 0030.923 9c-4.081 0-7.384 3.31-7.384 7.392 0 .58.06 1.145.19 1.686-6.141-.305-11.588-3.25-15.227-7.728a7.406 7.406 0 002.296 9.872 7.214 7.214 0 01-3.356-.923v.091a7.392 7.392 0 005.927 7.248 7.432 7.432 0 01-1.945.259 6.97 6.97 0 01-1.388-.137 7.397 7.397 0 006.904 5.134A14.808 14.808 0 016 34.953a20.645 20.645 0 0011.306 3.341c13.602 0 21.032-11.267 21.032-21.04 0-.32-.007-.64-.023-.953A15.033 15.033 0 0042 12.47z" fill="#000"/></svg>